# Blender v2.70 (sub 0) OBJ File: ''
# www.blender.org
o sphere_smooth
v 0.000000 -1.000000 0.000000
v 0.723607 -0.447220 0.525725
v -0.276388 -0.447220 0.850649
v -0.894426 -0.447216 0.000000
v -0.276388 -0.447220 -0.850649
v 0.723607 -0.447220 -0.525725
v 0.276388 0.447220 0.850649
v -0.723607 0.447220 0.525725
v -0.723607 0.447220 -0.525725
v 0.276388 0.447220 -0.850649
v 0.894426 0.447216 0.000000
v 0.000000 1.000000 0.000000
v -0.232822 -0.657519 0.716563
v -0.162456 -0.850654 0.499995
v -0.077607 -0.967950 0.238853
v 0.203181 -0.967950 0.147618
v 0.425323 -0.850654 0.309011
v 0.609547 -0.657519 0.442856
v 0.531941 -0.502302 0.681712
v 0.262869 -0.525738 0.809012
v -0.029639 -0.502302 0.864184
v 0.812729 -0.502301 -0.295238
v 0.850648 -0.525736 0.000000
v 0.812729 -0.502301 0.295238
v 0.203181 -0.967950 -0.147618
v 0.425323 -0.850654 -0.309011
v 0.609547 -0.657519 -0.442856
v -0.753442 -0.657515 0.000000
v -0.525730 -0.850652 0.000000
v -0.251147 -0.967949 0.000000
v -0.483971 -0.502302 0.716565
v -0.688189 -0.525736 0.499997
v -0.831051 -0.502299 0.238853
v -0.232822 -0.657519 -0.716563
v -0.162456 -0.850654 -0.499995
v -0.077607 -0.967950 -0.238853
v -0.831051 -0.502299 -0.238853
v -0.688189 -0.525736 -0.499997
v -0.483971 -0.502302 -0.716565
v -0.029639 -0.502302 -0.864184
v 0.262869 -0.525738 -0.809012
v 0.531941 -0.502302 -0.681712
v 0.956626 0.251149 0.147618
v 0.951058 -0.000000 0.309013
v 0.860698 -0.251151 0.442858
v 0.860698 -0.251151 -0.442858
v 0.951058 0.000000 -0.309013
v 0.956626 0.251149 -0.147618
v 0.155215 0.251152 0.955422
v 0.000000 -0.000000 1.000000
v -0.155215 -0.251152 0.955422
v 0.687159 -0.251152 0.681715
v 0.587786 0.000000 0.809017
v 0.436007 0.251152 0.864188
v -0.860698 0.251151 0.442858
v -0.951058 -0.000000 0.309013
v -0.956626 -0.251149 0.147618
v -0.436007 -0.251152 0.864188
v -0.587786 0.000000 0.809017
v -0.687159 0.251152 0.681715
v -0.687159 0.251152 -0.681715
v -0.587786 -0.000000 -0.809017
v -0.436007 -0.251152 -0.864188
v -0.956626 -0.251149 -0.147618
v -0.951058 0.000000 -0.309013
v -0.860698 0.251151 -0.442858
v 0.436007 0.251152 -0.864188
v 0.587786 -0.000000 -0.809017
v 0.687159 -0.251152 -0.681715
v -0.155215 -0.251152 -0.955422
v 0.000000 0.000000 -1.000000
v 0.155215 0.251152 -0.955422
v 0.831051 0.502299 0.238853
v 0.688189 0.525736 0.499997
v 0.483971 0.502302 0.716565
v 0.029639 0.502302 0.864184
v -0.262869 0.525738 0.809012
v -0.531941 0.502302 0.681712
v -0.812729 0.502301 0.295238
v -0.850648 0.525736 0.000000
v -0.812729 0.502301 -0.295238
v -0.531941 0.502302 -0.681712
v -0.262869 0.525738 -0.809012
v 0.029639 0.502302 -0.864184
v 0.483971 0.502302 -0.716565
v 0.688189 0.525736 -0.499997
v 0.831051 0.502299 -0.238853
v 0.077607 0.967950 0.238853
v 0.162456 0.850654 0.499995
v 0.232822 0.657519 0.716563
v 0.753442 0.657515 0.000000
v 0.525730 0.850652 0.000000
v 0.251147 0.967949 0.000000
v -0.203181 0.967950 0.147618
v -0.425323 0.850654 0.309011
v -0.609547 0.657519 0.442856
v -0.203181 0.967950 -0.147618
v -0.425323 0.850654 -0.309011
v -0.609547 0.657519 -0.442856
v 0.077607 0.967950 -0.238853
v 0.162456 0.850654 -0.499995
v 0.232822 0.657519 -0.716563
v 0.052790 -0.723612 0.688185
v 0.138199 -0.894429 0.425321
v 0.361805 -0.723611 0.587779
v 0.670817 -0.723611 -0.162457
v 0.670818 -0.723610 0.162458
v 0.447211 -0.894428 0.000001
v -0.638195 -0.723609 0.262864
v -0.361801 -0.894428 0.262864
v -0.447211 -0.723610 0.525729
v -0.447211 -0.723612 -0.525727
v -0.361801 -0.894429 -0.262863
v -0.638195 -0.723609 -0.262863
v 0.361803 -0.723612 -0.587779
v 0.138197 -0.894429 -0.425321
v 0.052789 -0.723611 -0.688186
v 1.000000 0.000000 0.000000
v 0.947213 -0.276396 0.162458
v 0.947213 -0.276396 -0.162458
v 0.309017 0.000000 0.951056
v 0.138199 -0.276398 0.951055
v 0.447216 -0.276398 0.850648
v -0.809018 0.000000 0.587783
v -0.861803 -0.276396 0.425324
v -0.670819 -0.276397 0.688191
v -0.809018 -0.000000 -0.587783
v -0.670819 -0.276397 -0.688191
v -0.861803 -0.276396 -0.425324
v 0.309017 -0.000000 -0.951056
v 0.447216 -0.276398 -0.850648
v 0.138199 -0.276398 -0.951055
v 0.670820 0.276396 0.688190
v 0.809019 -0.000002 0.587783
v 0.861804 0.276394 0.425323
v -0.447216 0.276397 0.850648
v -0.309017 -0.000001 0.951056
v -0.138199 0.276397 0.951055
v -0.947213 0.276396 -0.162458
v -1.000000 0.000001 0.000000
v -0.947213 0.276397 0.162458
v -0.138199 0.276397 -0.951055
v -0.309016 -0.000000 -0.951057
v -0.447215 0.276397 -0.850649
v 0.861804 0.276396 -0.425322
v 0.809019 0.000000 -0.587782
v 0.670821 0.276397 -0.688189
v 0.361800 0.894429 0.262863
v 0.447209 0.723612 0.525728
v 0.638194 0.723610 0.262864
v -0.138197 0.894430 0.425319
v -0.361804 0.723612 0.587778
v -0.052790 0.723612 0.688185
v -0.447210 0.894429 0.000000
v -0.670817 0.723611 -0.162457
v -0.670817 0.723611 0.162457
v -0.138197 0.894430 -0.425319
v -0.052790 0.723612 -0.688185
v -0.361804 0.723612 -0.587778
v 0.361800 0.894429 -0.262863
v 0.638194 0.723610 -0.262864
v 0.447209 0.723612 -0.525728
vt 0.000000 0.000000
vn 0.000000 -1.000000 0.000000
vn 0.210944 -0.965392 0.153264
vn -0.080569 -0.965392 0.247963
vn 0.723594 -0.447218 0.525712
vn 0.604205 -0.664968 0.438978
vn 0.815180 -0.503800 0.285714
vn -0.260750 -0.965392 0.000000
vn -0.080569 -0.965392 -0.247963
vn 0.210944 -0.965392 -0.153264
vn 0.864986 -0.243049 0.438978
vn -0.276376 -0.447218 0.850642
vn -0.019837 -0.503800 0.863552
vn -0.150212 -0.243049 0.958281
vn -0.894406 -0.447188 0.000000
vn -0.827448 -0.503800 0.247963
vn -0.957823 -0.243049 0.153264
vn -0.276376 -0.447218 -0.850642
vn -0.491531 -0.503800 -0.710288
vn -0.441725 -0.243049 -0.863582
vn 0.723594 -0.447218 -0.525712
vn 0.523637 -0.503800 -0.686972
vn 0.684805 -0.243049 -0.686972
vn 0.684805 -0.243049 0.686972
vn -0.441725 -0.243049 0.863582
vn -0.957823 -0.243049 -0.153264
vn -0.150212 -0.243049 -0.958281
vn 0.864986 -0.243049 -0.438978
vn 0.276376 0.447218 0.850642
vn 0.491531 0.503800 0.710288
vn 0.230781 0.664968 0.710288
vn -0.723594 0.447218 0.525712
vn -0.523637 0.503800 0.686972
vn -0.604205 0.664968 0.438978
vn -0.723594 0.447218 -0.525712
vn -0.815180 0.503800 -0.285714
vn -0.604205 0.664968 -0.438978
vn 0.276376 0.447218 -0.850642
vn 0.019837 0.503800 -0.863552
vn 0.230781 0.664968 -0.710288
vn 0.894406 0.447188 0.000000
vn 0.827448 0.503800 -0.247963
vn 0.746849 0.664968 0.000000
vn -0.230781 -0.664968 0.710288
vn -0.162450 -0.850642 0.499985
vn 0.059206 -0.727531 0.683493
vn 0.140629 -0.890408 0.432844
vn 0.262856 -0.525712 0.808985
vn 0.353832 -0.727531 0.587756
vn 0.523637 -0.503800 0.686972
vn 0.425306 -0.850642 0.309000
vn 0.815180 -0.503800 -0.285714
vn 0.604205 -0.664968 -0.438978
vn 0.850642 -0.525712 0.000000
vn 0.668325 -0.727531 -0.154881
vn 0.668325 -0.727531 0.154881
vn 0.425306 -0.850642 -0.309000
vn 0.455123 -0.890408 0.000000
vn -0.746849 -0.664968 0.000000
vn -0.525712 -0.850642 0.000000
vn -0.631733 -0.727531 0.267495
vn -0.368206 -0.890408 0.267495
vn -0.688162 -0.525712 0.499985
vn -0.449629 -0.727531 0.518143
vn -0.491531 -0.503800 0.710288
vn -0.230781 -0.664968 -0.710288
vn -0.162450 -0.850642 -0.499985
vn -0.449629 -0.727531 -0.518143
vn -0.368206 -0.890408 -0.267495
vn -0.688162 -0.525712 -0.499985
vn -0.631733 -0.727531 -0.267495
vn -0.827448 -0.503800 -0.247963
vn 0.353832 -0.727531 -0.587756
vn 0.140629 -0.890408 -0.432844
vn 0.262856 -0.525712 -0.808985
vn 0.059206 -0.727531 -0.683493
vn -0.019837 -0.503800 -0.863552
vn 0.957823 0.243049 0.153264
vn 0.957823 0.243049 -0.153264
vn 0.951048 0.000000 0.309000
vn 0.999939 -0.008850 0.000000
vn 0.949614 -0.272408 0.154881
vn 0.951048 0.000000 -0.309000
vn 0.949614 -0.272408 -0.154881
vn 0.150212 0.243049 0.958281
vn 0.441725 0.243049 0.863582
vn 0.000000 0.000000 1.000000
vn 0.309000 -0.008850 0.951018
vn 0.146123 -0.272408 0.950987
vn 0.587756 0.000000 0.809015
vn 0.440748 -0.272408 0.855251
vn -0.864986 0.243049 0.438978
vn -0.684805 0.243049 0.686972
vn -0.951048 0.000000 0.309000
vn -0.808985 -0.008850 0.587756
vn -0.859310 -0.272408 0.432844
vn -0.587756 0.000000 0.809015
vn -0.677206 -0.272408 0.683493
vn -0.684805 0.243049 -0.686972
vn -0.864986 0.243049 -0.438978
vn -0.587756 0.000000 -0.809015
vn -0.808985 -0.008850 -0.587756
vn -0.677206 -0.272408 -0.683493
vn -0.951048 0.000000 -0.309000
vn -0.859310 -0.272408 -0.432844
vn 0.441725 0.243049 -0.863582
vn 0.150212 0.243049 -0.958281
vn 0.587756 0.000000 -0.809015
vn 0.309000 -0.008850 -0.951018
vn 0.440748 -0.272408 -0.855251
vn 0.000000 0.000000 -1.000000
vn 0.146123 -0.272408 -0.950987
vn 0.677206 0.272408 0.683493
vn 0.808985 0.008850 0.587756
vn 0.688162 0.525712 0.499985
vn 0.859310 0.272408 0.432844
vn 0.827448 0.503800 0.247963
vn -0.440748 0.272408 0.855251
vn -0.309000 0.008850 0.951018
vn -0.262856 0.525712 0.808985
vn -0.146123 0.272408 0.950987
vn 0.019837 0.503800 0.863552
vn -0.949614 0.272408 -0.154881
vn -0.999939 0.008850 0.000000
vn -0.850642 0.525712 0.000000
vn -0.949614 0.272408 0.154881
vn -0.815180 0.503800 0.285714
vn -0.146123 0.272408 -0.950987
vn -0.309000 0.008850 -0.951018
vn -0.262856 0.525712 -0.808985
vn -0.440748 0.272408 -0.855251
vn -0.523637 0.503800 -0.686972
vn 0.859310 0.272408 -0.432844
vn 0.808985 0.008850 -0.587756
vn 0.688162 0.525712 -0.499985
vn 0.677206 0.272408 -0.683493
vn 0.491531 0.503800 -0.710288
vn 0.080569 0.965392 0.247963
vn 0.260750 0.965392 0.000000
vn 0.000000 1.000000 0.000000
vn 0.162450 0.850642 0.499985
vn 0.368206 0.890408 0.267495
vn 0.449629 0.727531 0.518143
vn 0.525712 0.850642 0.000000
vn 0.631733 0.727531 0.267495
vn -0.210944 0.965392 0.153264
vn -0.425306 0.850642 0.309000
vn -0.140629 0.890408 0.432844
vn -0.353832 0.727531 0.587725
vn -0.059206 0.727531 0.683493
vn -0.210944 0.965392 -0.153264
vn -0.425306 0.850642 -0.309000
vn -0.455123 0.890408 0.000000
vn -0.668325 0.727531 -0.154881
vn -0.668325 0.727531 0.154881
vn 0.080569 0.965392 -0.247963
vn 0.162450 0.850642 -0.499985
vn -0.140629 0.890408 -0.432844
vn -0.059206 0.727531 -0.683493
vn -0.353832 0.727531 -0.587725
vn 0.368206 0.890408 -0.267495
vn 0.631733 0.727531 -0.267495
vn 0.449629 0.727531 -0.518143
s 1
f 1/1/1 16/1/2 15/1/3
f 2/1/4 18/1/5 24/1/6
f 1/1/1 15/1/3 30/1/7
f 1/1/1 30/1/7 36/1/8
f 1/1/1 36/1/8 25/1/9
f 2/1/4 24/1/6 45/1/10
f 3/1/11 21/1/12 51/1/13
f 4/1/14 33/1/15 57/1/16
f 5/1/17 39/1/18 63/1/19
f 6/1/20 42/1/21 69/1/22
f 2/1/4 45/1/10 52/1/23
f 3/1/11 51/1/13 58/1/24
f 4/1/14 57/1/16 64/1/25
f 5/1/17 63/1/19 70/1/26
f 6/1/20 69/1/22 46/1/27
f 7/1/28 75/1/29 90/1/30
f 8/1/31 78/1/32 96/1/33
f 9/1/34 81/1/35 99/1/36
f 10/1/37 84/1/38 102/1/39
f 11/1/40 87/1/41 91/1/42
f 13/1/43 21/1/12 3/1/11
f 14/1/44 103/1/45 13/1/43
f 15/1/3 104/1/46 14/1/44
f 13/1/43 103/1/45 21/1/12
f 103/1/45 20/1/47 21/1/12
f 14/1/44 104/1/46 103/1/45
f 104/1/46 105/1/48 103/1/45
f 103/1/45 105/1/48 20/1/47
f 105/1/48 19/1/49 20/1/47
f 15/1/3 16/1/2 104/1/46
f 16/1/2 17/1/50 104/1/46
f 104/1/46 17/1/50 105/1/48
f 17/1/50 18/1/5 105/1/48
f 105/1/48 18/1/5 19/1/49
f 18/1/5 2/1/4 19/1/49
f 22/1/51 27/1/52 6/1/20
f 23/1/53 106/1/54 22/1/51
f 24/1/6 107/1/55 23/1/53
f 22/1/51 106/1/54 27/1/52
f 106/1/54 26/1/56 27/1/52
f 23/1/53 107/1/55 106/1/54
f 107/1/55 108/1/57 106/1/54
f 106/1/54 108/1/57 26/1/56
f 108/1/57 25/1/9 26/1/56
f 24/1/6 18/1/5 107/1/55
f 18/1/5 17/1/50 107/1/55
f 107/1/55 17/1/50 108/1/57
f 17/1/50 16/1/2 108/1/57
f 108/1/57 16/1/2 25/1/9
f 16/1/2 1/1/1 25/1/9
f 28/1/58 33/1/15 4/1/14
f 29/1/59 109/1/60 28/1/58
f 30/1/7 110/1/61 29/1/59
f 28/1/58 109/1/60 33/1/15
f 109/1/60 32/1/62 33/1/15
f 29/1/59 110/1/61 109/1/60
f 110/1/61 111/1/63 109/1/60
f 109/1/60 111/1/63 32/1/62
f 111/1/63 31/1/64 32/1/62
f 30/1/7 15/1/3 110/1/61
f 15/1/3 14/1/44 110/1/61
f 110/1/61 14/1/44 111/1/63
f 14/1/44 13/1/43 111/1/63
f 111/1/63 13/1/43 31/1/64
f 13/1/43 3/1/11 31/1/64
f 34/1/65 39/1/18 5/1/17
f 35/1/66 112/1/67 34/1/65
f 36/1/8 113/1/68 35/1/66
f 34/1/65 112/1/67 39/1/18
f 112/1/67 38/1/69 39/1/18
f 35/1/66 113/1/68 112/1/67
f 113/1/68 114/1/70 112/1/67
f 112/1/67 114/1/70 38/1/69
f 114/1/70 37/1/71 38/1/69
f 36/1/8 30/1/7 113/1/68
f 30/1/7 29/1/59 113/1/68
f 113/1/68 29/1/59 114/1/70
f 29/1/59 28/1/58 114/1/70
f 114/1/70 28/1/58 37/1/71
f 28/1/58 4/1/14 37/1/71
f 27/1/52 42/1/21 6/1/20
f 26/1/56 115/1/72 27/1/52
f 25/1/9 116/1/73 26/1/56
f 27/1/52 115/1/72 42/1/21
f 115/1/72 41/1/74 42/1/21
f 26/1/56 116/1/73 115/1/72
f 116/1/73 117/1/75 115/1/72
f 115/1/72 117/1/75 41/1/74
f 117/1/75 40/1/76 41/1/74
f 25/1/9 36/1/8 116/1/73
f 36/1/8 35/1/66 116/1/73
f 116/1/73 35/1/66 117/1/75
f 35/1/66 34/1/65 117/1/75
f 117/1/75 34/1/65 40/1/76
f 34/1/65 5/1/17 40/1/76
f 43/1/77 48/1/78 11/1/40
f 44/1/79 118/1/80 43/1/77
f 45/1/10 119/1/81 44/1/79
f 43/1/77 118/1/80 48/1/78
f 118/1/80 47/1/82 48/1/78
f 44/1/79 119/1/81 118/1/80
f 119/1/81 120/1/83 118/1/80
f 118/1/80 120/1/83 47/1/82
f 120/1/83 46/1/27 47/1/82
f 45/1/10 24/1/6 119/1/81
f 24/1/6 23/1/53 119/1/81
f 119/1/81 23/1/53 120/1/83
f 23/1/53 22/1/51 120/1/83
f 120/1/83 22/1/51 46/1/27
f 22/1/51 6/1/20 46/1/27
f 49/1/84 54/1/85 7/1/28
f 50/1/86 121/1/87 49/1/84
f 51/1/13 122/1/88 50/1/86
f 49/1/84 121/1/87 54/1/85
f 121/1/87 53/1/89 54/1/85
f 50/1/86 122/1/88 121/1/87
f 122/1/88 123/1/90 121/1/87
f 121/1/87 123/1/90 53/1/89
f 123/1/90 52/1/23 53/1/89
f 51/1/13 21/1/12 122/1/88
f 21/1/12 20/1/47 122/1/88
f 122/1/88 20/1/47 123/1/90
f 20/1/47 19/1/49 123/1/90
f 123/1/90 19/1/49 52/1/23
f 19/1/49 2/1/4 52/1/23
f 55/1/91 60/1/92 8/1/31
f 56/1/93 124/1/94 55/1/91
f 57/1/16 125/1/95 56/1/93
f 55/1/91 124/1/94 60/1/92
f 124/1/94 59/1/96 60/1/92
f 56/1/93 125/1/95 124/1/94
f 125/1/95 126/1/97 124/1/94
f 124/1/94 126/1/97 59/1/96
f 126/1/97 58/1/24 59/1/96
f 57/1/16 33/1/15 125/1/95
f 33/1/15 32/1/62 125/1/95
f 125/1/95 32/1/62 126/1/97
f 32/1/62 31/1/64 126/1/97
f 126/1/97 31/1/64 58/1/24
f 31/1/64 3/1/11 58/1/24
f 61/1/98 66/1/99 9/1/34
f 62/1/100 127/1/101 61/1/98
f 63/1/19 128/1/102 62/1/100
f 61/1/98 127/1/101 66/1/99
f 127/1/101 65/1/103 66/1/99
f 62/1/100 128/1/102 127/1/101
f 128/1/102 129/1/104 127/1/101
f 127/1/101 129/1/104 65/1/103
f 129/1/104 64/1/25 65/1/103
f 63/1/19 39/1/18 128/1/102
f 39/1/18 38/1/69 128/1/102
f 128/1/102 38/1/69 129/1/104
f 38/1/69 37/1/71 129/1/104
f 129/1/104 37/1/71 64/1/25
f 37/1/71 4/1/14 64/1/25
f 67/1/105 72/1/106 10/1/37
f 68/1/107 130/1/108 67/1/105
f 69/1/22 131/1/109 68/1/107
f 67/1/105 130/1/108 72/1/106
f 130/1/108 71/1/110 72/1/106
f 68/1/107 131/1/109 130/1/108
f 131/1/109 132/1/111 130/1/108
f 130/1/108 132/1/111 71/1/110
f 132/1/111 70/1/26 71/1/110
f 69/1/22 42/1/21 131/1/109
f 42/1/21 41/1/74 131/1/109
f 131/1/109 41/1/74 132/1/111
f 41/1/74 40/1/76 132/1/111
f 132/1/111 40/1/76 70/1/26
f 40/1/76 5/1/17 70/1/26
f 54/1/85 75/1/29 7/1/28
f 53/1/89 133/1/112 54/1/85
f 52/1/23 134/1/113 53/1/89
f 54/1/85 133/1/112 75/1/29
f 133/1/112 74/1/114 75/1/29
f 53/1/89 134/1/113 133/1/112
f 134/1/113 135/1/115 133/1/112
f 133/1/112 135/1/115 74/1/114
f 135/1/115 73/1/116 74/1/114
f 52/1/23 45/1/10 134/1/113
f 45/1/10 44/1/79 134/1/113
f 134/1/113 44/1/79 135/1/115
f 44/1/79 43/1/77 135/1/115
f 135/1/115 43/1/77 73/1/116
f 43/1/77 11/1/40 73/1/116
f 60/1/92 78/1/32 8/1/31
f 59/1/96 136/1/117 60/1/92
f 58/1/24 137/1/118 59/1/96
f 60/1/92 136/1/117 78/1/32
f 136/1/117 77/1/119 78/1/32
f 59/1/96 137/1/118 136/1/117
f 137/1/118 138/1/120 136/1/117
f 136/1/117 138/1/120 77/1/119
f 138/1/120 76/1/121 77/1/119
f 58/1/24 51/1/13 137/1/118
f 51/1/13 50/1/86 137/1/118
f 137/1/118 50/1/86 138/1/120
f 50/1/86 49/1/84 138/1/120
f 138/1/120 49/1/84 76/1/121
f 49/1/84 7/1/28 76/1/121
f 66/1/99 81/1/35 9/1/34
f 65/1/103 139/1/122 66/1/99
f 64/1/25 140/1/123 65/1/103
f 66/1/99 139/1/122 81/1/35
f 139/1/122 80/1/124 81/1/35
f 65/1/103 140/1/123 139/1/122
f 140/1/123 141/1/125 139/1/122
f 139/1/122 141/1/125 80/1/124
f 141/1/125 79/1/126 80/1/124
f 64/1/25 57/1/16 140/1/123
f 57/1/16 56/1/93 140/1/123
f 140/1/123 56/1/93 141/1/125
f 56/1/93 55/1/91 141/1/125
f 141/1/125 55/1/91 79/1/126
f 55/1/91 8/1/31 79/1/126
f 72/1/106 84/1/38 10/1/37
f 71/1/110 142/1/127 72/1/106
f 70/1/26 143/1/128 71/1/110
f 72/1/106 142/1/127 84/1/38
f 142/1/127 83/1/129 84/1/38
f 71/1/110 143/1/128 142/1/127
f 143/1/128 144/1/130 142/1/127
f 142/1/127 144/1/130 83/1/129
f 144/1/130 82/1/131 83/1/129
f 70/1/26 63/1/19 143/1/128
f 63/1/19 62/1/100 143/1/128
f 143/1/128 62/1/100 144/1/130
f 62/1/100 61/1/98 144/1/130
f 144/1/130 61/1/98 82/1/131
f 61/1/98 9/1/34 82/1/131
f 48/1/78 87/1/41 11/1/40
f 47/1/82 145/1/132 48/1/78
f 46/1/27 146/1/133 47/1/82
f 48/1/78 145/1/132 87/1/41
f 145/1/132 86/1/134 87/1/41
f 47/1/82 146/1/133 145/1/132
f 146/1/133 147/1/135 145/1/132
f 145/1/132 147/1/135 86/1/134
f 147/1/135 85/1/136 86/1/134
f 46/1/27 69/1/22 146/1/133
f 69/1/22 68/1/107 146/1/133
f 146/1/133 68/1/107 147/1/135
f 68/1/107 67/1/105 147/1/135
f 147/1/135 67/1/105 85/1/136
f 67/1/105 10/1/37 85/1/136
f 88/1/137 93/1/138 12/1/139
f 89/1/140 148/1/141 88/1/137
f 90/1/30 149/1/142 89/1/140
f 88/1/137 148/1/141 93/1/138
f 148/1/141 92/1/143 93/1/138
f 89/1/140 149/1/142 148/1/141
f 149/1/142 150/1/144 148/1/141
f 148/1/141 150/1/144 92/1/143
f 150/1/144 91/1/42 92/1/143
f 90/1/30 75/1/29 149/1/142
f 75/1/29 74/1/114 149/1/142
f 149/1/142 74/1/114 150/1/144
f 74/1/114 73/1/116 150/1/144
f 150/1/144 73/1/116 91/1/42
f 73/1/116 11/1/40 91/1/42
f 94/1/145 88/1/137 12/1/139
f 95/1/146 151/1/147 94/1/145
f 96/1/33 152/1/148 95/1/146
f 94/1/145 151/1/147 88/1/137
f 151/1/147 89/1/140 88/1/137
f 95/1/146 152/1/148 151/1/147
f 152/1/148 153/1/149 151/1/147
f 151/1/147 153/1/149 89/1/140
f 153/1/149 90/1/30 89/1/140
f 96/1/33 78/1/32 152/1/148
f 78/1/32 77/1/119 152/1/148
f 152/1/148 77/1/119 153/1/149
f 77/1/119 76/1/121 153/1/149
f 153/1/149 76/1/121 90/1/30
f 76/1/121 7/1/28 90/1/30
f 97/1/150 94/1/145 12/1/139
f 98/1/151 154/1/152 97/1/150
f 99/1/36 155/1/153 98/1/151
f 97/1/150 154/1/152 94/1/145
f 154/1/152 95/1/146 94/1/145
f 98/1/151 155/1/153 154/1/152
f 155/1/153 156/1/154 154/1/152
f 154/1/152 156/1/154 95/1/146
f 156/1/154 96/1/33 95/1/146
f 99/1/36 81/1/35 155/1/153
f 81/1/35 80/1/124 155/1/153
f 155/1/153 80/1/124 156/1/154
f 80/1/124 79/1/126 156/1/154
f 156/1/154 79/1/126 96/1/33
f 79/1/126 8/1/31 96/1/33
f 100/1/155 97/1/150 12/1/139
f 101/1/156 157/1/157 100/1/155
f 102/1/39 158/1/158 101/1/156
f 100/1/155 157/1/157 97/1/150
f 157/1/157 98/1/151 97/1/150
f 101/1/156 158/1/158 157/1/157
f 158/1/158 159/1/159 157/1/157
f 157/1/157 159/1/159 98/1/151
f 159/1/159 99/1/36 98/1/151
f 102/1/39 84/1/38 158/1/158
f 84/1/38 83/1/129 158/1/158
f 158/1/158 83/1/129 159/1/159
f 83/1/129 82/1/131 159/1/159
f 159/1/159 82/1/131 99/1/36
f 82/1/131 9/1/34 99/1/36
f 93/1/138 100/1/155 12/1/139
f 92/1/143 160/1/160 93/1/138
f 91/1/42 161/1/161 92/1/143
f 93/1/138 160/1/160 100/1/155
f 160/1/160 101/1/156 100/1/155
f 92/1/143 161/1/161 160/1/160
f 161/1/161 162/1/162 160/1/160
f 160/1/160 162/1/162 101/1/156
f 162/1/162 102/1/39 101/1/156
f 91/1/42 87/1/41 161/1/161
f 87/1/41 86/1/134 161/1/161
f 161/1/161 86/1/134 162/1/162
f 86/1/134 85/1/136 162/1/162
f 162/1/162 85/1/136 102/1/39
f 85/1/136 10/1/37 102/1/39
